<svg width="20" height="20" viewBox="0 0 20 20" fill="none" xmlns="http://www.w3.org/2000/svg">
<rect width="20" height="20" rx="10" fill="#667EEA"/>
<path d="M11.8758 8.66328L13.0352 8.66875C13.0352 9.00781 12.9914 9.31589 12.9039 9.59297C12.8164 9.87005 12.6906 10.1089 12.5266 10.3094C12.3661 10.5063 12.1747 10.6594 11.9523 10.7688C11.7336 10.8745 11.4911 10.9273 11.225 10.9273C10.9297 10.9273 10.6672 10.869 10.4375 10.7523C10.2078 10.6357 9.96172 10.4534 9.69922 10.2055C9.54609 10.0523 9.40026 9.93568 9.26172 9.85547C9.12682 9.77526 8.98464 9.73516 8.83516 9.73516C8.68932 9.73516 8.56354 9.77891 8.45781 9.86641C8.35208 9.95026 8.26823 10.0669 8.20625 10.2164C8.14792 10.3659 8.11875 10.5354 8.11875 10.725L6.94844 10.7141C6.94844 10.3714 6.99219 10.0633 7.07969 9.78984C7.16719 9.51276 7.29115 9.2776 7.45156 9.08438C7.61198 8.89115 7.80156 8.74349 8.02031 8.64141C8.24271 8.53932 8.48698 8.48828 8.75313 8.48828C9.04479 8.48828 9.31094 8.55026 9.55156 8.67422C9.79583 8.79453 10.0401 8.97318 10.2844 9.21016C10.4448 9.36328 10.5906 9.47995 10.7219 9.56016C10.8531 9.63672 10.9935 9.675 11.143 9.675C11.2852 9.675 11.4109 9.63125 11.5203 9.54375C11.6297 9.45625 11.7154 9.33594 11.7773 9.18281C11.843 9.02969 11.8758 8.85651 11.8758 8.66328Z" fill="white"/>
</svg>
