<svg width="36" height="32" viewBox="0 0 36 32" fill="none" xmlns="http://www.w3.org/2000/svg">
<path d="M16.6236 2.94884C15.733 2.01968 14.6643 1.27958 13.4812 0.772757C12.2982 0.265937 11.0251 0.00279751 9.73809 -0.000936262C8.45106 -0.00467003 7.17648 0.251078 5.99052 0.751026C4.80455 1.25097 3.73154 1.98486 2.83559 2.90884C-0.964409 6.80884 -0.944409 13.1448 2.87559 17.0568L16.9956 31.5488C17.5796 32.1488 18.5316 32.1488 19.1156 31.5488L33.1676 17.1408C34.9894 15.2355 36.0028 12.6989 35.9954 10.0628C35.9879 7.42666 34.9602 4.89579 33.1276 3.00084C32.2363 2.07059 31.1665 1.32967 29.9822 0.82241C28.798 0.315149 27.5236 0.0519665 26.2352 0.0486057C24.9469 0.0452448 23.6712 0.301775 22.4843 0.80285C21.2974 1.30393 20.2237 2.03925 19.3276 2.96484L17.9836 4.34484L16.6236 2.94884Z" fill="#BCCBF6"/>
</svg>
