<svg width="20" height="20" viewBox="0 0 20 20" fill="none" xmlns="http://www.w3.org/2000/svg">
<rect width="20" height="20" rx="10" fill="#EF4444"/>
<path d="M7.41245 14.3888L7.30045 14.2768L7.23325 14.344C7.11378 14.2245 7.05405 14.1275 7.05405 14.0528C7.05405 13.9931 7.02418 13.9632 6.96445 13.9632L6.85245 13.8064L7.00925 13.5376V13.504L7.02045 13.4592C7.02045 13.4069 7.00925 13.3808 6.98685 13.3808C6.93458 13.3808 6.88978 13.336 6.85245 13.2464C6.89725 13.1568 6.96818 13.0299 7.06525 12.8656C7.16978 12.7013 7.28178 12.5221 7.40125 12.328C7.52072 12.1339 7.63645 11.9509 7.74845 11.7792C7.86045 11.6075 7.95005 11.4768 8.01725 11.3872L8.43165 10.8272C8.74525 10.3941 9.08498 9.96853 9.45085 9.5504L9.27165 9.1472L9.13725 8.8112C9.04018 8.5648 8.95058 8.3408 8.86845 8.1392C8.78632 7.9376 8.71912 7.7584 8.66685 7.6016C8.56232 7.27307 8.51005 7.09013 8.51005 7.0528C8.52498 6.97067 8.53992 6.89973 8.55485 6.84C8.57725 6.78027 8.59218 6.73547 8.59965 6.7056H8.75645C8.77885 6.64587 8.79752 6.616 8.81245 6.616C8.83485 6.62347 8.86472 6.64587 8.90205 6.6832C8.94685 6.71307 8.97298 6.728 8.98045 6.728L9.11485 6.5936L9.20445 6.7056L9.24925 6.4368C9.33885 6.4368 9.39112 6.45173 9.40605 6.4816C9.41352 6.51147 9.44338 6.53013 9.49565 6.5376L9.54045 6.5488H9.56285L10.0333 7.512L10.4589 8.3408C10.6605 8.08693 10.8434 7.86293 11.0077 7.6688C11.1719 7.4672 11.3213 7.29547 11.4557 7.1536C11.5975 7.00427 11.7357 6.8512 11.8701 6.6944C12.0119 6.53013 12.1613 6.35467 12.3181 6.168L12.3853 6.3024L12.4413 6.2576L12.5309 6.2128C12.5458 6.22027 12.5532 6.2464 12.5532 6.2912C12.5532 6.336 12.5719 6.3696 12.6092 6.392L12.654 6.4144C12.6989 6.4144 12.7698 6.3696 12.8668 6.28C12.9714 6.1904 13.0274 6.1456 13.0349 6.1456C13.0498 6.1456 13.0573 6.15307 13.0573 6.168C13.0647 6.1904 13.0684 6.2128 13.0684 6.2352C13.0684 6.2576 13.0684 6.28 13.0684 6.3024C13.0684 6.35467 13.0834 6.39947 13.1133 6.4368C13.1357 6.46667 13.1469 6.50773 13.1469 6.56C13.1469 6.68693 13.1058 6.80267 13.0237 6.9072C12.9341 7.0192 12.4077 7.7136 11.4445 8.9904L11.0413 9.528L11.3325 10.1328C11.549 10.5733 11.7133 10.9243 11.8253 11.1856C11.9447 11.4395 12.0194 11.6037 12.0493 11.6784L12.1277 11.88C12.2396 12.1712 12.2956 12.3355 12.2956 12.3728C12.2956 12.4027 12.2807 12.4288 12.2509 12.4512C12.221 12.4661 12.1874 12.4736 12.1501 12.4736L12.1165 12.4624H12.0941C12.0642 12.4624 12.0269 12.4923 11.982 12.552L11.9372 12.7984L11.7805 12.7536L11.7693 12.7872L11.7357 12.9552C11.6162 12.9477 11.5229 12.9253 11.4557 12.888C11.3959 12.8507 11.2914 12.7424 11.1421 12.5632C11.0674 12.4736 10.9741 12.3429 10.8621 12.1712C10.7575 11.992 10.6306 11.7755 10.4813 11.5216L10.0781 10.8272L9.51805 11.6336C9.24178 12.0368 8.98418 12.4288 8.74525 12.8096C8.50632 13.1904 8.30098 13.5376 8.12925 13.8512C7.95752 14.1723 7.77832 14.344 7.59165 14.3664L7.45725 14.2992L7.41245 14.3888Z" fill="white"/>
</svg>
